<svg xmlns="http://www.w3.org/2000/svg" width="72" height="72" viewBox="0 0 72 72"><style type="text/css">.st0{fill:#26120B;stroke:#26120B;stroke-width:1.8389;stroke-miterlimit:10;} .st1{fill:#FFFFFF;stroke:#26120B;stroke-miterlimit:10;} .st2{fill:none;stroke:#26120B;stroke-width:1.8389;stroke-miterlimit:10;}</style><path class="st0" d="M49.3 12.7s2.4 7.7 0 14.8c-2.3 7-7.6 25.6-4.8 39.8 0 .2-22.9.3-22.8 0 2.7-14.1-2.5-32.7-4.8-39.8-2.4-7.1 0-14.8 0-14.8h32.4z"/><path class="st1" d="M54.5 33.9c0 1.2-1 2.2-2.2 2.2-1.2 0-2.2-1-2.2-2.2 0-.9.6-1.7 1.4-2-1.2-.2-2.2-1.2-2.2-2.5 0-.8.4-1.5.9-1.9-.1-.2-.1-.4-.1-.6 0-1.1.9-2 2-2s2 .9 2 2c0 .3-.1.6-.2.9.4.4.6 1 .6 1.7 0 1.1-.7 2.1-1.7 2.4 1 .1 1.7.9 1.7 2zM16.7 13h32.8v3.5h-32.8z"/><path class="st2" d="M49.3 12.7s2.4 7.7 0 14.8c-2.3 7-7.6 25.6-4.8 39.8 0 .2-22.9.3-22.8 0 2.7-14.1-2.5-32.7-4.8-39.8-2.4-7.1 0-14.8 0-14.8h32.4z"/><path class="st1" d="M53.7 21.5c.1.2.1.4.1.6 0 .8-.6 1.5-1.4 1.5-.8 0-1.5-.7-1.5-1.5 0-.5.2-.9.6-1.1-.8-.5-1.3-1.5-1.3-2.5 0-.8.3-1.5.8-2-.5-.5-.8-1.2-.8-1.9 0-.3 0-.5.1-.8-.3.1-.7.2-1.1.2-1.2 0-2.3-.6-3-1.5-.5.6-1.2.9-2 .9-1.1 0-2-.6-2.4-1.5-.8 1.7-2.5 2.8-4.5 2.8-1.7 0-3.3-.9-4.2-2.2-.8.8-2 1.4-3.2 1.4-1.8 0-3.4-1.1-4.1-2.6-.4 1.3-1.6 2.3-3 2.3-1.3 0-2.4-.8-2.9-1.9-.3.7-1.1 1.2-1.9 1.2-1.2 0-2.2-1-2.2-2.2 0-1.2 1-2.2 2.2-2.2.7 0 1.4.4 1.8 1 .4-1.3 1.6-2.3 3-2.3 1.1 0 2.1.6 2.7 1.5.3-2.2 2.2-3.9 4.4-3.9 1.4 0 2.6.6 3.4 1.6.9-1.2 2.4-1.9 4-1.9 2.5 0 4.6 1.8 5 4.2.5-.5 1.2-.8 2-.8.6 0 1.2.2 1.7.6.6-1.2 1.9-2.1 3.3-2.1 2.1 0 3.8 1.7 3.8 3.8 0 .6-.1 1.1-.4 1.6h.4c1.5 0 2.8 1.2 2.8 2.8 0 .6-.2 1.1-.5 1.6.7.6 1.1 1.4 1.1 2.3-.2 1.5-1.3 2.8-2.8 3z"/></svg>