<?xml version="1.0" encoding="utf-8"?>
<!-- Generator: Adobe Illustrator 18.1.1, SVG Export Plug-In . SVG Version: 6.00 Build 0)  -->
<!DOCTYPE svg PUBLIC "-//W3C//DTD SVG 1.1//EN" "http://www.w3.org/Graphics/SVG/1.1/DTD/svg11.dtd">
<svg version="1.1" id="Layer_1" xmlns="http://www.w3.org/2000/svg" xmlns:xlink="http://www.w3.org/1999/xlink" x="0px" y="0px"
	 width="82.5px" height="125px" viewBox="0 0 82.5 125" style="enable-background:new 0 0 82.5 125;" xml:space="preserve">
<style type="text/css">
	.st0{fill:#E68E24;}
	.st1{fill:none;stroke:#26120B;stroke-width:3;stroke-linecap:round;stroke-miterlimit:10;}
</style>
<path class="st0" d="M69.3,25.8c0,0,3.5,11.5,0,22c-3.5,10.5-11.3,38.2-7.2,59.3c0.1,0.4-34.1,0.4-34,0c4.1-21.1-3.7-48.8-7.2-59.3
	c-3.5-10.6,0-22,0-22L69.3,25.8z"/>
<path class="st1" d="M63.1,19.1c0,0,3.5,11.5,0,22c-3.5,10.5-11.3,38.2-7.2,59.3c0.1,0.4-34.1,0.4-34,0c4.1-21.1-3.7-48.8-7.2-59.3
	c-3.5-10.6,0-22,0-22L63.1,19.1z"/>
</svg>
