<svg xmlns="http://www.w3.org/2000/svg" width="85" height="125" viewBox="0 0 85 125"><style type="text/css">.st0{fill:#E68E24;} .st1{fill:none;stroke:#26120B;stroke-width:3;stroke-linecap:round;stroke-miterlimit:10;}</style><path class="st0" d="M70.6 25.8s3.5 11.5 0 22-11.3 38.2-7.2 59.3c.1.4-34.1.4-34 0 4.1-21.1-3.7-48.8-7.2-59.3-3.5-10.6 0-22 0-22h48.4z"/><path class="st1" d="M64.3 19.1s3.5 11.5 0 22-11.3 38.2-7.2 59.3c.1.4-34.1.4-34 0 4.1-21.1-3.7-48.8-7.2-59.3-3.5-10.6 0-22 0-22h48.4z"/></svg>