<svg xmlns="http://www.w3.org/2000/svg" width="72" height="72" viewBox="0 0 72 72"><style type="text/css">.st0{fill:#FFFFFF;stroke:#26120B;stroke-width:2;stroke-miterlimit:10;} .st1{fill:#E68E24;stroke:#26120B;stroke-width:2;stroke-miterlimit:10;} .st2{fill:#B65327;stroke:#26120B;stroke-width:2;stroke-miterlimit:10;} .st3{fill:#4C2010;stroke:#26120B;stroke-miterlimit:10;}</style><path class="st0" d="M8.3 37.9c0 14.9 3.1 29.5 17 29.5s40-29.1 40-44-21.1 1.5-35 1.5-22-2-22 13z"/><circle class="st1" cx="31.3" cy="42.9" r="11.5"/><path class="st2" d="M67.5 56.1c.9-2-3.4-25.7-17.4-24.7s-12.5-10-19.4-20.1l-15.2-5.8-11 10.9c-.2.2 0 .6.3.5 2.6-.7 8.6-1.3 13.8 6.3 6.9 10 5.5 21.1 19.4 20.1 12.3-.9 17.1 17.5 17.5 23.2 0 .5.6.7 1 .4l11-10.8z"/><path class="st3" d="M64.5 59.1c.9-2-3.5-24.5-17.5-23.5s-12.5-10-19.4-20.1l-16-6.1-4.2 4s8.2-4.2 15.1 5.9 5.5 21.1 19.4 20.1c14-1 18.3 22.7 17.4 24.7l5.2-5z"/></svg>