<?xml version="1.0" encoding="utf-8"?>
<!-- Generator: Adobe Illustrator 18.1.1, SVG Export Plug-In . SVG Version: 6.00 Build 0)  -->
<!DOCTYPE svg PUBLIC "-//W3C//DTD SVG 1.1//EN" "http://www.w3.org/Graphics/SVG/1.1/DTD/svg11.dtd">
<svg version="1.1" id="Layer_1" xmlns="http://www.w3.org/2000/svg" xmlns:xlink="http://www.w3.org/1999/xlink" x="0px" y="0px"
	 width="72px" height="72px" viewBox="0 0 72 72" style="enable-background:new 0 0 72 72;" xml:space="preserve">
<style type="text/css">
	.st0{fill:#FFFFFF;stroke:#26120B;stroke-width:2;stroke-miterlimit:10;}
	.st1{fill:#E68E24;stroke:#26120B;stroke-width:2;stroke-miterlimit:10;}
	.st2{fill:#B65327;stroke:#26120B;stroke-width:2;stroke-miterlimit:10;}
	.st3{fill:#4C2010;stroke:#26120B;stroke-miterlimit:10;}
</style>
<g>
	<path class="st0" d="M8.3,37.9c0,14.9,3.1,29.5,17,29.5s40-29.1,40-44s-21.1,1.5-35,1.5S8.3,22.9,8.3,37.9z"/>
	<circle class="st1" cx="31.3" cy="42.9" r="11.5"/>
	<g>
		<path class="st2" d="M67.5,56.1c0.9-2-3.4-25.7-17.4-24.7s-12.5-10-19.4-20.1S15.5,5.5,15.5,5.5l-11,10.9c-0.2,0.2,0,0.6,0.3,0.5
			c2.6-0.7,8.6-1.3,13.8,6.3c6.9,10,5.5,21.1,19.4,20.1c12.3-0.9,17.1,17.5,17.5,23.2c0,0.5,0.6,0.7,1,0.4L67.5,56.1z"/>
		<path class="st3" d="M64.5,59.1c0.9-2-3.5-24.5-17.5-23.5s-12.5-10-19.4-20.1s-16-6.1-16-6.1l-4.2,4c0,0,8.2-4.2,15.1,5.9
			s5.5,21.1,19.4,20.1c14-1,18.3,22.7,17.4,24.7L64.5,59.1z"/>
	</g>
</g>
</svg>
