<?xml version="1.0" encoding="utf-8"?>
<!-- Generator: Adobe Illustrator 18.1.1, SVG Export Plug-In . SVG Version: 6.00 Build 0)  -->
<!DOCTYPE svg PUBLIC "-//W3C//DTD SVG 1.1//EN" "http://www.w3.org/Graphics/SVG/1.1/DTD/svg11.dtd">
<svg version="1.1" id="Layer_1" xmlns="http://www.w3.org/2000/svg" xmlns:xlink="http://www.w3.org/1999/xlink" x="0px" y="0px"
	 width="72px" height="72px" viewBox="0 0 72 72" style="enable-background:new 0 0 72 72;" xml:space="preserve">
<style type="text/css">
	.st0{fill:#26120B;stroke:#26120B;stroke-width:2;stroke-miterlimit:10;}
	.st1{fill:#4C2010;stroke:#26120B;stroke-width:2;stroke-miterlimit:10;}
	.st2{fill:#B65327;stroke:#26120B;stroke-width:2;stroke-miterlimit:10;}
</style>
<g>
	<path class="st0" d="M7.2,52.5C7.1,47.7,7.3,39.9,9,28.3c0.4-2.8,2.3-5.2,5-6.2l21.9-7.7c2.2-0.8,4.7-0.5,6.7,0.8l18.8,12.2
		c2.4,1.5,3.7,4.2,3.5,7L63,57.3c-0.3,4.3-4.2,7.5-8.5,7L14,59.8C10.3,59.4,7.3,56.3,7.2,52.5z"/>
	<path class="st1" d="M63.2,29.4l-51.8-5c0.9-0.8,0.7-0.5,1-0.6l26.2-9.6c0.1,0,0.1,0,0.2,0l23.6,14.7C62.5,29,63.9,30.2,63.2,29.4z
		"/>
	<path class="st2" d="M64.6,34.3c0-1.1-0.8-2-1.8-2.1c-7.6-0.7-35.9-3.3-48.6-4.6c-1.5-0.2-3.9,5.1-1,6c5,1.5,40,5.5,49.1,6.5
		c1.2,0.1,2.2-0.8,2.2-1.9L64.6,34.3z"/>
	<path class="st2" d="M63.6,46.8c0-1.1-0.8-2-1.8-2.1c-7.6-0.7-35.9-3.3-48.6-4.6c-1.5-0.2-3.9,5.1-1,6c5,1.5,40,5.5,49.1,6.5
		c1.2,0.1,2.2-0.8,2.2-1.9L63.6,46.8z"/>
	<path class="st2" d="M62.8,58.3c0-1.1-0.8-2-1.8-2.1c-7.6-0.7-35.9-3.3-48.6-4.6c-1.5-0.2-3.9,5.1-1,6c4.4,1.4,32.6,4.6,45.2,6.1
		C59.9,64.1,62.7,61.6,62.8,58.3L62.8,58.3z"/>
	<circle class="st1" cx="34.4" cy="12" r="4.3"/>
	<circle class="st1" cx="28.7" cy="15" r="4.3"/>
	<circle class="st1" cx="22.7" cy="18" r="4.3"/>
	<circle class="st1" cx="16.7" cy="20.7" r="4.3"/>
</g>
</svg>
