<svg xmlns="http://www.w3.org/2000/svg" width="72" height="72" viewBox="0 0 72 72"><style type="text/css">.st0{fill:#26120B;stroke:#26120B;stroke-width:2;stroke-miterlimit:10;} .st1{fill:#4C2010;stroke:#26120B;stroke-width:2;stroke-miterlimit:10;} .st2{fill:#B65327;stroke:#26120B;stroke-width:2;stroke-miterlimit:10;}</style><path class="st0" d="M7.2 52.5c-.1-4.8.1-12.6 1.8-24.2.4-2.8 2.3-5.2 5-6.2l21.9-7.7c2.2-.8 4.7-.5 6.7.8l18.8 12.2c2.4 1.5 3.7 4.2 3.5 7l-1.9 22.9c-.3 4.3-4.2 7.5-8.5 7l-40.5-4.5c-3.7-.4-6.7-3.5-6.8-7.3z"/><path class="st1" d="M63.2 29.4l-51.8-5c.9-.8.7-.5 1-.6l26.2-9.6h.2l23.6 14.7c.1.1 1.5 1.3.8.5z"/><path class="st2" d="M64.6 34.3c0-1.1-.8-2-1.8-2.1-7.6-.7-35.9-3.3-48.6-4.6-1.5-.2-3.9 5.1-1 6 5 1.5 40 5.5 49.1 6.5 1.2.1 2.2-.8 2.2-1.9l.1-3.9zM63.6 46.8c0-1.1-.8-2-1.8-2.1-7.6-.7-35.9-3.3-48.6-4.6-1.5-.2-3.9 5.1-1 6 5 1.5 40 5.5 49.1 6.5 1.2.1 2.2-.8 2.2-1.9l.1-3.9zM62.8 58.3c0-1.1-.8-2-1.8-2.1-7.6-.7-35.9-3.3-48.6-4.6-1.5-.2-3.9 5.1-1 6 4.4 1.4 32.6 4.6 45.2 6.1 3.3.4 6.1-2.1 6.2-5.4z"/><circle class="st1" cx="34.4" cy="12" r="4.3"/><circle class="st1" cx="28.7" cy="15" r="4.3"/><circle class="st1" cx="22.7" cy="18" r="4.3"/><circle class="st1" cx="16.7" cy="20.7" r="4.3"/></svg>