<?xml version="1.0" encoding="utf-8"?>
<!-- Generator: Adobe Illustrator 18.1.1, SVG Export Plug-In . SVG Version: 6.00 Build 0)  -->
<!DOCTYPE svg PUBLIC "-//W3C//DTD SVG 1.1//EN" "http://www.w3.org/Graphics/SVG/1.1/DTD/svg11.dtd">
<svg version="1.1" id="Layer_1" xmlns="http://www.w3.org/2000/svg" xmlns:xlink="http://www.w3.org/1999/xlink" x="0px" y="0px"
	 width="72px" height="72px" viewBox="0 0 72 72" style="enable-background:new 0 0 72 72;" xml:space="preserve">
<style type="text/css">
	.st0{fill:#E68E24;stroke:#26120B;stroke-miterlimit:10;}
	.st1{fill:#E68E24;stroke:#26120B;stroke-width:0.4527;stroke-miterlimit:10;}
	.st2{fill:#B65327;stroke:#26120B;stroke-width:2.1244;stroke-miterlimit:10;}
</style>
<g>
	<g>
		<path class="st0" d="M54.2,62.6L33.4,30.1c-0.3-0.5-0.2-1.1,0.2-1.5c0.7-0.7,1.4-2.1,0.8-4.9c-0.9-4,16.4,25,20.7,32.2
			c0.4,0.7,0.4,1.6-0.1,2.3c-0.5,0.6-1,1.9-0.5,4.2C54.6,62.6,54.3,62.8,54.2,62.6z"/>
	</g>
	<g>
		<path class="st0" d="M68.7,51.1l-38.5-0.5c-0.6,0-1-0.4-1.2-1c-0.2-0.9-1-2.3-3.6-3.4c-3.8-1.4,29.9-0.1,38.3,0.3
			c0.8,0,1.6,0.5,1.9,1.3c0.3,0.8,1,1.8,3.2,2.7C69,50.8,68.9,51.1,68.7,51.1z"/>
	</g>
	<g>
		<path class="st0" d="M70.6,20.5L38.9,42.4c-0.5,0.3-1.1,0.3-1.5-0.1c-0.7-0.6-2.1-1.4-4.9-0.7c-3.9,1,24.4-17.3,31.4-21.8
			c0.7-0.5,1.6-0.5,2.3,0c0.7,0.5,1.9,0.9,4.2,0.4C70.7,20.1,70.8,20.4,70.6,20.5z"/>
		<path class="st1" d="M35.4,41.1"/>
		<path class="st1" d="M66.2,19.8"/>
	</g>
	<g>
		<path class="st0" d="M52.2,66.2l-35-16c-0.5-0.2-0.8-0.8-0.7-1.4c0.2-0.9,0.1-2.5-2-4.5c-2.9-2.8,27.4,12,34.9,15.8
			c0.7,0.4,1.3,1.2,1.2,2c-0.1,0.8,0.2,2.1,1.8,3.8C52.5,66,52.4,66.3,52.2,66.2z"/>
	</g>
	<path class="st0" d="M30.4,8.5L8,39.8c-0.3,0.5-0.9,0.6-1.5,0.4c-0.9-0.4-2.5-0.6-4.8,1c-3.4,2.3,17.1-24.5,22.2-31.1
		c0.5-0.7,1.4-1,2.2-0.8c0.8,0.2,2.1,0.2,4.1-1.1C30.3,8.1,30.6,8.4,30.4,8.5z"/>
	<path class="st1" d="M6.4,39.8"/>
	<path class="st1" d="M27.7,9.4"/>
	<path class="st1" d="M4.3,39.8"/>
	<path class="st1" d="M26,9.3"/>
	<g>
		<path class="st0" d="M41.4,47.8l-35-16c-0.5-0.2-0.8-0.8-0.7-1.4c0.2-0.9,0.1-2.5-2-4.5c-2.9-2.8,27.4,12,34.9,15.8
			c0.7,0.4,1.3,1.2,1.2,2c-0.1,0.8,0.2,2.1,1.8,3.8C41.8,47.6,41.6,47.9,41.4,47.8z"/>
		<path class="st1" d="M5.6,28.1"/>
		<path class="st1" d="M39.7,43.6"/>
	</g>
	<g>
		<path class="st0" d="M62.1,29L27.7,11.7c-0.5-0.3-0.7-0.8-0.6-1.4c0.2-0.9,0.2-2.5-1.8-4.6c-2.8-3,26.9,13,34.3,17
			c0.7,0.4,1.2,1.2,1.1,2c-0.1,0.8,0.1,2.1,1.7,3.9C62.5,28.8,62.3,29.1,62.1,29z"/>
		<path class="st1" d="M27.2,8.1"/>
		<path class="st1" d="M60.6,24.8"/>
	</g>
	<g>
		<path class="st0" d="M18,46.2L30.4,9.8C30.6,9.3,31.1,9,31.7,9c0.9,0.1,2.5-0.2,4.3-2.4c2.5-3.1-9.2,28.4-12.2,36.3
			c-0.3,0.8-1,1.4-1.9,1.4c-0.8,0-2.1,0.4-3.6,2.2C18.2,46.6,18,46.5,18,46.2z"/>
		<path class="st1" d="M31.9,9.3"/>
		<path class="st1" d="M20.4,44.7"/>
	</g>
	<path class="st2" d="M7.3,20.7l57.9,33c0.6,0.3,1.1-0.5,0.5-0.9L11.6,14.1c-0.2-0.2-0.6-0.1-0.7,0.1L7.1,20
		C6.9,20.2,7,20.6,7.3,20.7z"/>
	<path class="st2" d="M46.3,4.9L27.6,68.9c-0.2,0.6-1.1,0.4-1-0.3l12-65.5c0.1-0.3,0.3-0.5,0.6-0.4l6.7,1.5
		C46.2,4.3,46.4,4.6,46.3,4.9z"/>
</g>
</svg>
