<svg xmlns="http://www.w3.org/2000/svg" width="72" height="72" viewBox="0 0 72 72"><style type="text/css">.st0{fill:#E68E24;stroke:#26120B;stroke-miterlimit:10;} .st1{fill:#E68E24;stroke:#26120B;stroke-width:0.4527;stroke-miterlimit:10;} .st2{fill:#B65327;stroke:#26120B;stroke-width:2.1244;stroke-miterlimit:10;}</style><path class="st0" d="M54.2 62.6l-20.8-32.5c-.3-.5-.2-1.1.2-1.5.7-.7 1.4-2.1.8-4.9-.9-4 16.4 25 20.7 32.2.4.7.4 1.6-.1 2.3-.5.6-1 1.9-.5 4.2.1.2-.2.4-.3.2zm14.5-11.5l-38.5-.5c-.6 0-1-.4-1.2-1-.2-.9-1-2.3-3.6-3.4-3.8-1.4 29.9-.1 38.3.3.8 0 1.6.5 1.9 1.3.3.8 1 1.8 3.2 2.7.2.3.1.6-.1.6zm1.9-30.6l-31.7 21.9c-.5.3-1.1.3-1.5-.1-.7-.6-2.1-1.4-4.9-.7-3.9 1 24.4-17.3 31.4-21.8.7-.5 1.6-.5 2.3 0 .7.5 1.9.9 4.2.4.3-.1.4.2.2.3z"/><path class="st1" d="M35.4 41.1m30.8-21.3"/><path class="st0" d="M52.2 66.2l-35-16c-.5-.2-.8-.8-.7-1.4.2-.9.1-2.5-2-4.5-2.9-2.8 27.4 12 34.9 15.8.7.4 1.3 1.2 1.2 2-.1.8.2 2.1 1.8 3.8.1.1 0 .4-.2.3zm-21.8-57.7l-22.4 31.3c-.3.5-.9.6-1.5.4-.9-.4-2.5-.6-4.8 1-3.4 2.3 17.1-24.5 22.2-31.1.5-.7 1.4-1 2.2-.8.8.2 2.1.2 4.1-1.1.1-.1.4.2.2.3z"/><path class="st1" d="M6.4 39.8m21.3-30.4-23.4 30.4 21.7-30.5"/><path class="st0" d="M41.4 47.8l-35-16c-.5-.2-.8-.8-.7-1.4.2-.9.1-2.5-2-4.5-2.9-2.8 27.4 12 34.9 15.8.7.4 1.3 1.2 1.2 2-.1.8.2 2.1 1.8 3.8.2.1 0 .4-.2.3z"/><path class="st1" d="M5.6 28.1m34.1 15.5"/><path class="st0" d="M62.1 29l-34.4-17.3c-.5-.3-.7-.8-.6-1.4.2-.9.2-2.5-1.8-4.6-2.8-3 26.9 13 34.3 17 .7.4 1.2 1.2 1.1 2-.1.8.1 2.1 1.7 3.9.1.2-.1.5-.3.4z"/><path class="st1" d="M27.2 8.1m33.4 16.7"/><path class="st0" d="M18 46.2l12.4-36.4c.2-.5.7-.8 1.3-.8.9.1 2.5-.2 4.3-2.4 2.5-3.1-9.2 28.4-12.2 36.3-.3.8-1 1.4-1.9 1.4-.8 0-2.1.4-3.6 2.2-.1.1-.3 0-.3-.3z"/><path class="st1" d="M31.9 9.3m-11.5 35.4"/><path class="st2" d="M7.3 20.7l57.9 33c.6.3 1.1-.5.5-.9l-54.1-38.7c-.2-.2-.6-.1-.7.1l-3.8 5.8c-.2.2-.1.6.2.7zm39-15.8l-18.7 64c-.2.6-1.1.4-1-.3l12-65.5c.1-.3.3-.5.6-.4l6.7 1.5c.3.1.5.4.4.7z"/></svg>