<?xml version="1.0" encoding="utf-8"?>
<!-- Generator: Adobe Illustrator 18.1.1, SVG Export Plug-In . SVG Version: 6.00 Build 0)  -->
<!DOCTYPE svg PUBLIC "-//W3C//DTD SVG 1.1//EN" "http://www.w3.org/Graphics/SVG/1.1/DTD/svg11.dtd">
<svg version="1.1" id="Layer_1" xmlns="http://www.w3.org/2000/svg" xmlns:xlink="http://www.w3.org/1999/xlink" x="0px" y="0px"
	 width="71.4px" height="71.4px" viewBox="-359 271.6 71.4 71.4" style="enable-background:new -359 271.6 71.4 71.4;"
	 xml:space="preserve">
<style type="text/css">
	.st0{fill:#26120B;}
</style>
<path class="st0" d="M-308.1,282.5h-30.4c-5.3,0-9.6,4.3-9.6,9.6v10.1v20.3c0,5.3,4.3,9.6,9.6,9.6h30.4c5.3,0,9.6-4.3,9.6-9.6v-20.3
	v-10.1C-298.5,286.8-302.8,282.5-308.1,282.5z M-305.3,288.2h1.1v1.1v7.3h-8.4v-8.4H-305.3z M-330.4,302.2c1.6-2.2,4.2-3.6,7.1-3.6
	c2.9,0,5.5,1.4,7.1,3.6c1,1.4,1.7,3.2,1.7,5.1c0,4.8-3.9,8.7-8.7,8.7c-4.8,0-8.7-3.9-8.7-8.7C-332,305.4-331.4,303.6-330.4,302.2z
	 M-303.3,322.5c0,2.6-2.1,4.8-4.8,4.8h-30.4c-2.6,0-4.8-2.1-4.8-4.8v-20.3h7.4c-0.6,1.6-1,3.3-1,5.1c0,7.5,6.1,13.6,13.6,13.6
	s13.6-6.1,13.6-13.6c0-1.8-0.4-3.5-1-5.1h7.4C-303.3,302.2-303.3,322.5-303.3,322.5z"/>
</svg>
