<svg xmlns="http://www.w3.org/2000/svg" width="39.6" height="59.7" viewBox="0 0 39.6 59.7"><style type="text/css">.st0{fill:#26120B;}</style><path class="st0" d="M30.7 12h-21.8c-3.8 0-6.9 3.1-6.9 6.9v21.9c0 3.8 3.1 6.9 6.9 6.9h21.9c3.8 0 6.9-3.1 6.9-6.9v-21.9c-.1-3.8-3.2-6.9-7-6.9zm2 4.1h.8v6.1h-6v-6l5.2-.1zm-18 10.1c1.1-1.6 3-2.6 5.1-2.6s3.9 1 5.1 2.6c.7 1 1.2 2.3 1.2 3.7 0 3.5-2.8 6.3-6.3 6.3s-6.3-2.8-6.3-6.3c0-1.4.5-2.7 1.2-3.7zm19.4 14.6c0 1.9-1.5 3.4-3.4 3.4h-21.8c-1.9 0-3.4-1.5-3.4-3.4v-14.6h5.3c-.5 1.1-.7 2.4-.7 3.7 0 5.4 4.4 9.7 9.7 9.7 5.4 0 9.7-4.4 9.7-9.7 0-1.3-.3-2.5-.7-3.7h5.3v14.6z"/></svg>