<?xml version="1.0" encoding="utf-8"?>
<!-- Generator: Adobe Illustrator 18.1.1, SVG Export Plug-In . SVG Version: 6.00 Build 0)  -->
<!DOCTYPE svg PUBLIC "-//W3C//DTD SVG 1.1//EN" "http://www.w3.org/Graphics/SVG/1.1/DTD/svg11.dtd">
<svg version="1.1" id="Layer_1" xmlns="http://www.w3.org/2000/svg" xmlns:xlink="http://www.w3.org/1999/xlink" x="0px" y="0px"
	 width="39.6px" height="59.7px" viewBox="0 0 39.6 59.7" style="enable-background:new 0 0 39.6 59.7;" xml:space="preserve">
<style type="text/css">
	.st0{fill:#26120B;}
</style>
<path class="st0" d="M30.7,12H8.9C5.1,12,2,15.1,2,18.9v7.3v14.6c0,3.8,3.1,6.9,6.9,6.9h21.9c3.8,0,6.9-3.1,6.9-6.9V26.2v-7.3
	C37.6,15.1,34.5,12,30.7,12z M32.7,16.1l0.8,0v0.8v5.3l-6,0l0-6L32.7,16.1z M14.7,26.2c1.1-1.6,3-2.6,5.1-2.6s3.9,1,5.1,2.6
	c0.7,1,1.2,2.3,1.2,3.7c0,3.5-2.8,6.3-6.3,6.3c-3.5,0-6.3-2.8-6.3-6.3C13.5,28.5,14,27.2,14.7,26.2z M34.1,40.8
	c0,1.9-1.5,3.4-3.4,3.4H8.9c-1.9,0-3.4-1.5-3.4-3.4V26.2h5.3c-0.5,1.1-0.7,2.4-0.7,3.7c0,5.4,4.4,9.7,9.7,9.7c5.4,0,9.7-4.4,9.7-9.7
	c0-1.3-0.3-2.5-0.7-3.7h5.3V40.8z"/>
</svg>
