<?xml version="1.0" encoding="utf-8"?>
<!-- Generator: Adobe Illustrator 18.1.1, SVG Export Plug-In . SVG Version: 6.00 Build 0)  -->
<!DOCTYPE svg PUBLIC "-//W3C//DTD SVG 1.1//EN" "http://www.w3.org/Graphics/SVG/1.1/DTD/svg11.dtd">
<svg version="1.1" id="Layer_1" xmlns="http://www.w3.org/2000/svg" xmlns:xlink="http://www.w3.org/1999/xlink" x="0px" y="0px"
	 width="85px" height="125px" viewBox="0 0 85 125" style="enable-background:new 0 0 85 125;" xml:space="preserve">
<style type="text/css">
	.st0{fill:#E68E24;}
	.st1{fill:none;stroke:#26120B;stroke-width:3;stroke-miterlimit:10;}
	.st2{fill:#26120B;}
	.st3{fill:none;stroke:#26120B;stroke-width:4;stroke-miterlimit:10;}
</style>
<g>
	<path class="st0" d="M44.9,34L17.8,87.4c-0.3,0.5-0.1,1.1,0.4,1.4l5.3,3.5c0.5,0.3,1.1,0.2,1.5-0.2l39.6-51.4
		c0.5-0.6,0.2-1.5-0.6-1.7l-17.8-5.5C45.7,33.3,45.2,33.5,44.9,34z"/>
	<path class="st1" d="M41.9,28L14.7,81.4c-0.3,0.5-0.1,1.1,0.4,1.4l5.3,3.5c0.5,0.3,1.1,0.2,1.5-0.2l39.6-51.4
		c0.5-0.6,0.2-1.5-0.6-1.7l-17.8-5.5C42.7,27.3,42.2,27.5,41.9,28z"/>
	<circle class="st2" cx="55.3" cy="25.6" r="21.2"/>
	<path class="st3" d="M14.6,90.8c-2.5,3-3.6,7.4-5.1,11.1c-1.5,3.7-1.6,8.1,0.6,11.4c1.2,1.8,3,3.1,4.8,4.2c2.7,1.7,5.6,3,8.8,3.1
		c7.5,0.2,13.3-6.8,15.6-14s2.2-14.9,4.5-22S52,70.5,59.5,70.9c7.6,0.4,13,8.3,13.4,15.9"/>
</g>
</svg>
