<svg xmlns="http://www.w3.org/2000/svg" width="72" height="72" viewBox="0 0 72 72"><style type="text/css">.st0{fill:#E68E24;stroke:#26120B;stroke-width:2.1742;stroke-miterlimit:10;} .st1{fill:#4C2010;stroke:#26120B;stroke-width:2.2972;stroke-miterlimit:10;} .st2{fill:none;stroke:#26120B;stroke-width:2.1742;stroke-linecap:round;stroke-miterlimit:10;}</style><path class="st0" d="M35.5 16.3l-15.6 30.7c-.1.3-.1.6.2.8l3.1 2c.3.2.7.1.9-.1l22.7-29.5c.3-.4.1-.9-.3-1l-10.2-3.2c-.3-.1-.6 0-.8.3z"/><circle class="st1" cx="43.2" cy="14.9" r="12.2"/><path class="st2" d="M19.9 52.4c-2.9 5-6.1 12.8 1.1 16.1 3.1 1.4 7 .7 9.7-1.5 3.4-2.9 4.1-7.6 4.7-11.8.5-3.2 1-6.5 2.5-9.3 1.6-2.8 4.5-5.1 7.7-4.9 4.5.2 7.5 5 7.7 9.1"/></svg>