<?xml version="1.0" encoding="utf-8"?>
<!-- Generator: Adobe Illustrator 18.1.1, SVG Export Plug-In . SVG Version: 6.00 Build 0)  -->
<!DOCTYPE svg PUBLIC "-//W3C//DTD SVG 1.1//EN" "http://www.w3.org/Graphics/SVG/1.1/DTD/svg11.dtd">
<svg version="1.1" id="Layer_1" xmlns="http://www.w3.org/2000/svg" xmlns:xlink="http://www.w3.org/1999/xlink" x="0px" y="0px"
	 width="72px" height="72px" viewBox="0 0 72 72" style="enable-background:new 0 0 72 72;" xml:space="preserve">
<style type="text/css">
	.st0{fill:#26120B;stroke:#26120B;stroke-width:1.7644;stroke-miterlimit:10;}
	.st1{fill:#26120B;stroke:#FFFFFF;stroke-width:2.3525;stroke-miterlimit:10;}
	.st2{fill:none;stroke:#26120B;stroke-width:2.3525;stroke-linecap:round;stroke-miterlimit:10;}
</style>
<g>
	<path class="st0" d="M35.5,14.9l-16,31.4c-0.2,0.3-0.1,0.7,0.2,0.8l3.1,2.1c0.3,0.2,0.7,0.1,0.9-0.1l23.3-30.3
		c0.3-0.4,0.1-0.9-0.3-1l-10.4-3.2C36,14.5,35.7,14.6,35.5,14.9z"/>
	<circle class="st1" cx="43.4" cy="13.5" r="12.5"/>
	<path class="st2" d="M19.5,51.9c-3,5.1-6.2,13.2,1.1,16.5c3.2,1.5,7.2,0.7,9.9-1.6c3.5-3,4.2-7.8,4.9-12.1c0.5-3.3,1-6.6,2.6-9.5
		c1.6-2.9,4.6-5.2,7.9-5c4.6,0.2,7.7,5.1,7.9,9.3"/>
</g>
</svg>
