<svg xmlns="http://www.w3.org/2000/svg" width="85" height="125" viewBox="0 0 85 125"><style type="text/css">.st0{fill:#E68E24;} .st1{fill:none;stroke:#26120B;stroke-width:3;stroke-miterlimit:10;} .st2{fill:#26120B;} .st3{fill:none;stroke:#26120B;stroke-width:4;stroke-miterlimit:10;}</style><path class="st0" d="M44.9 34l-27.1 53.4c-.3.5-.1 1.1.4 1.4l5.3 3.5c.5.3 1.1.2 1.5-.2l39.6-51.4c.5-.6.2-1.5-.6-1.7l-17.8-5.5c-.5-.2-1 0-1.3.5z"/><path class="st1" d="M41.9 28l-27.2 53.4c-.3.5-.1 1.1.4 1.4l5.3 3.5c.5.3 1.1.2 1.5-.2l39.6-51.4c.5-.6.2-1.5-.6-1.7l-17.8-5.5c-.4-.2-.9 0-1.2.5z"/><circle class="st2" cx="55.3" cy="25.6" r="21.2"/><path class="st3" d="M14.6 90.8c-2.5 3-3.6 7.4-5.1 11.1-1.5 3.7-1.6 8.1.6 11.4 1.2 1.8 3 3.1 4.8 4.2 2.7 1.7 5.6 3 8.8 3.1 7.5.2 13.3-6.8 15.6-14s2.2-14.9 4.5-22 8.2-14.1 15.7-13.7c7.6.4 13 8.3 13.4 15.9"/></svg>