<?xml version="1.0" encoding="utf-8"?>
<!-- Generator: Adobe Illustrator 18.1.1, SVG Export Plug-In . SVG Version: 6.00 Build 0)  -->
<!DOCTYPE svg PUBLIC "-//W3C//DTD SVG 1.1//EN" "http://www.w3.org/Graphics/SVG/1.1/DTD/svg11.dtd">
<svg version="1.1" id="Layer_1" xmlns="http://www.w3.org/2000/svg" xmlns:xlink="http://www.w3.org/1999/xlink" x="0px" y="0px"
	 width="72px" height="72px" viewBox="0 0 72 72" style="enable-background:new 0 0 72 72;" xml:space="preserve">
<style type="text/css">
	.st0{fill:#26120B;stroke:#26120B;stroke-width:1.5848;stroke-miterlimit:10;}
	.st1{fill:#26120B;stroke:#FFFFFF;stroke-width:2.1131;stroke-miterlimit:10;}
	.st2{fill:none;stroke:#26120B;stroke-width:2.1131;stroke-linecap:round;stroke-miterlimit:10;}
</style>
<g>
	<path class="st0" d="M35.6,17.9L21.2,46.1c-0.1,0.3-0.1,0.6,0.2,0.8l2.8,1.9c0.3,0.2,0.6,0.1,0.8-0.1l20.9-27.2
		c0.3-0.3,0.1-0.8-0.3-0.9l-9.4-2.9C36,17.5,35.7,17.6,35.6,17.9z"/>
	<circle class="st1" cx="42.6" cy="16.6" r="11.2"/>
	<path class="st2" d="M21.2,51.1c-2.7,4.6-5.6,11.8,1,14.8c2.9,1.3,6.5,0.6,8.9-1.4c3.2-2.7,3.8-7,4.4-10.9c0.4-2.9,0.9-5.9,2.3-8.5
		c1.5-2.6,4.2-4.7,7.1-4.5c4.1,0.2,6.9,4.6,7.1,8.4"/>
</g>
</svg>
