<?xml version="1.0" encoding="utf-8"?>
<!-- Generator: Adobe Illustrator 18.1.1, SVG Export Plug-In . SVG Version: 6.00 Build 0)  -->
<!DOCTYPE svg PUBLIC "-//W3C//DTD SVG 1.1//EN" "http://www.w3.org/Graphics/SVG/1.1/DTD/svg11.dtd">
<svg version="1.1" id="Layer_1" xmlns="http://www.w3.org/2000/svg" xmlns:xlink="http://www.w3.org/1999/xlink" x="0px" y="0px"
	 width="72px" height="72px" viewBox="0 0 72 72" style="enable-background:new 0 0 72 72;" xml:space="preserve">
<style type="text/css">
	.st0{fill:#E68E24;stroke:#26120B;stroke-width:2.1742;stroke-miterlimit:10;}
	.st1{fill:#4C2010;stroke:#26120B;stroke-width:2.2972;stroke-miterlimit:10;}
	.st2{fill:none;stroke:#26120B;stroke-width:2.1742;stroke-linecap:round;stroke-miterlimit:10;}
</style>
<g>
	<path class="st0" d="M35.5,16.3L19.9,47c-0.1,0.3-0.1,0.6,0.2,0.8l3.1,2c0.3,0.2,0.7,0.1,0.9-0.1l22.7-29.5c0.3-0.4,0.1-0.9-0.3-1
		L36.3,16C36,15.9,35.7,16,35.5,16.3z"/>
	<circle class="st1" cx="43.2" cy="14.9" r="12.2"/>
	<path class="st2" d="M19.9,52.4c-2.9,5-6.1,12.8,1.1,16.1c3.1,1.4,7,0.7,9.7-1.5c3.4-2.9,4.1-7.6,4.7-11.8c0.5-3.2,1-6.5,2.5-9.3
		c1.6-2.8,4.5-5.1,7.7-4.9c4.5,0.2,7.5,5,7.7,9.1"/>
</g>
</svg>
