<svg xmlns="http://www.w3.org/2000/svg" width="72" height="72" viewBox="0 0 72 72"><style type="text/css">.st0{fill:#B65327;stroke:#26120B;stroke-width:2;stroke-miterlimit:10;} .st1{fill:#E68E24;stroke:#26120B;stroke-width:2;stroke-miterlimit:10;}</style><path class="st0" d="M50.8 31.9c-2.1 0-23.9 25.9-31.7 32.5-2.5 2.2-10.2 4.2-8.1-3.4 2-7.4 36.2-24.8 35.4-32.2-2.7-23.9 16.9-28.8 20.7-21.2 4.5 9.1-1.5 24.3-16.3 24.3z"/><path class="st1" d="M24 31.4c11 10.4 19.2 26.3 27.4 34.1 2.4 2.2 9.9 4.7 8.3-3-1.6-7.5-26.8-28.2-32.4-32.9-.5-.5.8-1.5 1.3-2 .9-.8 2.9-3.4 1.7-7.6-1.4-4.7-8-12.6-10.1-15.2-.3-.4-.9-.5-1.4-.2l-1.6 1.1c-.4.3-.6.9-.2 1.4l6.7 9.8c.5.7.3 1.8-.5 2.2-.7.4-1.6.2-2-.4l-7.6-11.1c-.3-.5-.9-.6-1.4-.3l-1.9 1.2c-.4.4-.6 1-.3 1.4 0 0 4.4 8.2 5.9 10.8.3.5 1.1 1.5-.1 2.3-1 .7-1.8-.4-2.1-.9-1.6-2.7-6.8-10.5-6.8-10.5-.3-.5-1-.7-1.5-.3l-1.6 1.3c-.3.4-.4 1-.2 1.4 0 0 5.3 10.1 7.7 13.7 1.6 2.5 5.3 5.2 9.7 3.5 2.1-.8 2.5-.2 3 .2z"/></svg>