<?xml version="1.0" encoding="utf-8"?>
<!-- Generator: Adobe Illustrator 18.1.1, SVG Export Plug-In . SVG Version: 6.00 Build 0)  -->
<!DOCTYPE svg PUBLIC "-//W3C//DTD SVG 1.1//EN" "http://www.w3.org/Graphics/SVG/1.1/DTD/svg11.dtd">
<svg version="1.1" id="Layer_1" xmlns="http://www.w3.org/2000/svg" xmlns:xlink="http://www.w3.org/1999/xlink" x="0px" y="0px"
	 width="72px" height="72px" viewBox="0 0 72 72" style="enable-background:new 0 0 72 72;" xml:space="preserve">
<style type="text/css">
	.st0{fill:#E68E24;stroke:#26120B;stroke-width:1.8545;stroke-miterlimit:10;}
	.st1{fill:#E68E24;stroke:#26120B;stroke-width:1.743;stroke-miterlimit:10;}
	.st2{fill:#4C2010;stroke:#26120B;stroke-width:2.3722;stroke-miterlimit:10;}
</style>
<g>
	<path class="st0" d="M10.6,26.7h50.9c0.6,0,1.1-0.5,1.1-1.1c0-3.4-1.9-12.9-21.7-13.1c-23.3-0.2-29.7,0.2-31.5,12.9
		C9.4,26.1,9.9,26.7,10.6,26.7z"/>
	<path class="st1" d="M61.7,46.9H10.2c-0.5,0-0.8,0.4-0.8,0.8c0,2.8,1.5,11.6,21.7,11.7c23.4,0.2,29.8-0.1,31.5-11.6
		C62.6,47.4,62.2,46.9,61.7,46.9z"/>
	<path class="st2" d="M66.6,32.4c-13.8,0-46.7,0.7-61,0.2c-3.8-0.2-4.2,7.7-1.7,8c9.7,1.1,51.2-0.3,63.7,0.3
		C71,41.1,69.9,32.4,66.6,32.4z"/>
</g>
</svg>
