<svg xmlns="http://www.w3.org/2000/svg" width="72" height="72" viewBox="0 0 72 72"><style type="text/css">.st0{fill:#E68E24;stroke:#26120B;stroke-width:1.8545;stroke-miterlimit:10;} .st1{fill:#E68E24;stroke:#26120B;stroke-width:1.743;stroke-miterlimit:10;} .st2{fill:#4C2010;stroke:#26120B;stroke-width:2.3722;stroke-miterlimit:10;}</style><path class="st0" d="M10.6 26.7h50.9c.6 0 1.1-.5 1.1-1.1 0-3.4-1.9-12.9-21.7-13.1-23.3-.2-29.7.2-31.5 12.9 0 .7.5 1.3 1.2 1.3z"/><path class="st1" d="M61.7 46.9h-51.5c-.5 0-.8.4-.8.8 0 2.8 1.5 11.6 21.7 11.7 23.4.2 29.8-.1 31.5-11.6 0-.4-.4-.9-.9-.9z"/><path class="st2" d="M66.6 32.4c-13.8 0-46.7.7-61 .2-3.8-.2-4.2 7.7-1.7 8 9.7 1.1 51.2-.3 63.7.3 3.4.2 2.3-8.5-1-8.5z"/></svg>