<svg xmlns="http://www.w3.org/2000/svg" width="72" height="72" viewBox="0 0 72 72"><style type="text/css">.st0{fill:#E68E24;stroke:#26120B;stroke-width:2;stroke-miterlimit:10;} .st1{fill:#4C2010;stroke:#26120B;stroke-width:2;stroke-miterlimit:10;}</style><path class="st0" d="M30.8 6.7l17.7 52.6-6.9 2.2-17.2-53.6zM7.6 29l44.2 33.5-4.5 5.7-44.3-34.6zM22.2 17.2l34.3 43.7-5.8 4.4-34.1-44.8zM15.9 30.8l51.1 21.7-3 6.7-51.4-22.9z"/><path class="st1" d="M33.3 37.3s-.5 7.4-5.5 11.7-7.1 1.5-8.7 4.2c-1.6 2.7-8.1 10.4-.3 12.4 7.8 2.1 16.1 5.3 17.5-5s8.4-14.5 13-14.6c4.5 0 24.3-7.4 18.7-20.7s-6.7-17.2-13.6-21.1-24.4 18.7-21.1 33.1z"/></svg>