<svg xmlns="http://www.w3.org/2000/svg" width="72" height="72" viewBox="0 0 72 72"><style type="text/css">.st0{fill:#26120B;stroke:#26120B;stroke-width:2;stroke-miterlimit:10;} .st1{fill:#FFFFFF;}</style><circle class="st0" cx="36" cy="36" r="31.3"/><path class="st1" d="M31.2 43.7c-.7 0-1.3-.6-1.3-1.3v-1.1c0-2 .4-3.8 1.3-5.3s2.5-3.1 4.8-4.8c2.2-1.6 3.7-2.9 4.4-3.9s1.1-2.1 1.1-3.3c0-1.4-.5-2.4-1.5-3.1-1-.7-2.4-1.1-4.3-1.1-2.9 0-6.1.8-9.7 2.5-.6.3-1.4.1-1.7-.6l-2.3-4.7c-.3-.6-.1-1.4.5-1.7 4.4-2.2 9-3.4 13.9-3.4 4.4 0 7.8 1 10.4 3.1 2.6 2.1 3.9 4.9 3.9 8.4 0 2.3-.5 4.3-1.6 6s-3.1 3.6-6 5.7c-2 1.5-3.3 2.6-3.9 3.4-.5.8-.8 1.8-.8 3.1v.6c0 .7-.6 1.3-1.3 1.3h-5.9zm-2.3 10.9c0-1.8.5-3.1 1.4-4 1-.9 2.3-1.4 4.2-1.4 1.8 0 3.1.5 4.1 1.4 1 .9 1.4 2.3 1.4 4 0 1.7-.5 3-1.5 4s-2.3 1.4-4.1 1.4c-1.8 0-3.2-.5-4.1-1.4-.9-1-1.4-2.3-1.4-4z"/></svg>