<svg xmlns="http://www.w3.org/2000/svg" width="85" height="125" viewBox="0 0 85 125"><style type="text/css">.st0{fill:#E68E24;} .st1{fill:none;stroke:#26120B;stroke-width:2.5672;stroke-miterlimit:10;} .st2{fill:#26120B;}</style><circle class="st0" cx="44.6" cy="67.4" r="37"/><circle class="st1" cx="40.4" cy="63.1" r="37"/><path class="st2" d="M33.7 72.6v-2.6c0-2.3.5-4.2 1.4-5.9 1-1.7 2.7-3.4 5.3-5.3 2.5-1.8 4.1-3.2 4.9-4.3.8-1.1 1.2-2.3 1.2-3.7 0-1.5-.6-2.7-1.7-3.5-1.1-.8-2.7-1.2-4.7-1.2-3.5 0-7.6 1.2-12.1 3.5l-3.8-7.7c5.2-2.9 10.8-4.4 16.7-4.4 4.8 0 8.7 1.2 11.6 3.5 2.9 2.3 4.3 5.4 4.3 9.3 0 2.6-.6 4.8-1.8 6.7-1.2 1.9-3.4 4-6.7 6.4-2.3 1.5-3.7 2.8-4.3 3.6-.6.9-.9 2-.9 3.4v2.1h-9.4zm-1.1 12c0-2 .5-3.5 1.6-4.5s2.6-1.5 4.6-1.5c2 0 3.5.5 4.5 1.6 1.1 1 1.6 2.5 1.6 4.4 0 1.9-.5 3.3-1.6 4.4-1.1 1.1-2.6 1.6-4.5 1.6-2 0-3.5-.5-4.6-1.6-1.1-1-1.6-2.5-1.6-4.4z"/></svg>