<?xml version="1.0" encoding="utf-8"?>
<!-- Generator: Adobe Illustrator 18.1.1, SVG Export Plug-In . SVG Version: 6.00 Build 0)  -->
<!DOCTYPE svg PUBLIC "-//W3C//DTD SVG 1.1//EN" "http://www.w3.org/Graphics/SVG/1.1/DTD/svg11.dtd">
<svg version="1.1" id="Layer_1" xmlns="http://www.w3.org/2000/svg" xmlns:xlink="http://www.w3.org/1999/xlink" x="0px" y="0px"
	 width="72px" height="72px" viewBox="0 0 72 72" style="enable-background:new 0 0 72 72;" xml:space="preserve">
<style type="text/css">
	.st0{fill:#E68E24;stroke:#26120B;stroke-width:2;stroke-miterlimit:10;}
	.st1{fill:#4C2010;stroke:#26120B;stroke-width:2;stroke-miterlimit:10;}
</style>
<g>
	<circle class="st0" cx="36" cy="36" r="31.3"/>
	<g>
		<path class="st1" d="M31.2,43.7c-0.7,0-1.3-0.6-1.3-1.3v-1.1c0-2,0.4-3.8,1.3-5.3c0.9-1.5,2.5-3.1,4.8-4.8
			c2.2-1.6,3.7-2.9,4.4-3.9s1.1-2.1,1.1-3.3c0-1.4-0.5-2.4-1.5-3.1c-1-0.7-2.4-1.1-4.3-1.1c-2.9,0-6.1,0.8-9.7,2.5
			c-0.6,0.3-1.4,0.1-1.7-0.6l-2.3-4.7c-0.3-0.6-0.1-1.4,0.5-1.7c4.4-2.2,9-3.4,13.9-3.4c4.4,0,7.8,1,10.4,3.1
			c2.6,2.1,3.9,4.9,3.9,8.4c0,2.3-0.5,4.3-1.6,6s-3.1,3.6-6,5.7c-2,1.5-3.3,2.6-3.9,3.4c-0.5,0.8-0.8,1.8-0.8,3.1v0.6
			c0,0.7-0.6,1.3-1.3,1.3H31.2z M28.9,54.6c0-1.8,0.5-3.1,1.4-4c1-0.9,2.3-1.4,4.2-1.4c1.8,0,3.1,0.5,4.1,1.4c1,0.9,1.4,2.3,1.4,4
			c0,1.7-0.5,3-1.5,4c-1,1-2.3,1.4-4.1,1.4c-1.8,0-3.2-0.5-4.1-1.4C29.4,57.6,28.9,56.3,28.9,54.6z"/>
	</g>
</g>
</svg>
