<?xml version="1.0" encoding="utf-8"?>
<!-- Generator: Adobe Illustrator 18.1.1, SVG Export Plug-In . SVG Version: 6.00 Build 0)  -->
<!DOCTYPE svg PUBLIC "-//W3C//DTD SVG 1.1//EN" "http://www.w3.org/Graphics/SVG/1.1/DTD/svg11.dtd">
<svg version="1.1" id="Layer_1" xmlns="http://www.w3.org/2000/svg" xmlns:xlink="http://www.w3.org/1999/xlink" x="0px" y="0px"
	 width="85px" height="125px" viewBox="0 0 85 125" style="enable-background:new 0 0 85 125;" xml:space="preserve">
<style type="text/css">
	.st0{fill:#E68E24;}
	.st1{fill:none;stroke:#26120B;stroke-width:2.5672;stroke-miterlimit:10;}
	.st2{fill:#26120B;}
</style>
<g>
	<circle class="st0" cx="44.6" cy="67.4" r="37"/>
	<circle class="st1" cx="40.4" cy="63.1" r="37"/>
	<g>
		<path class="st2" d="M33.7,72.6V70c0-2.3,0.5-4.2,1.4-5.9c1-1.7,2.7-3.4,5.3-5.3c2.5-1.8,4.1-3.2,4.9-4.3c0.8-1.1,1.2-2.3,1.2-3.7
			c0-1.5-0.6-2.7-1.7-3.5c-1.1-0.8-2.7-1.2-4.7-1.2c-3.5,0-7.6,1.2-12.1,3.5l-3.8-7.7c5.2-2.9,10.8-4.4,16.7-4.4
			c4.8,0,8.7,1.2,11.6,3.5c2.9,2.3,4.3,5.4,4.3,9.3c0,2.6-0.6,4.8-1.8,6.7c-1.2,1.9-3.4,4-6.7,6.4C46,64.9,44.6,66.2,44,67
			c-0.6,0.9-0.9,2-0.9,3.4v2.1H33.7z M32.6,84.6c0-2,0.5-3.5,1.6-4.5c1.1-1,2.6-1.5,4.6-1.5c2,0,3.5,0.5,4.5,1.6
			c1.1,1,1.6,2.5,1.6,4.4c0,1.9-0.5,3.3-1.6,4.4c-1.1,1.1-2.6,1.6-4.5,1.6c-2,0-3.5-0.5-4.6-1.6C33.1,88,32.6,86.5,32.6,84.6z"/>
	</g>
</g>
</svg>
