<?xml version="1.0" encoding="utf-8"?>
<!-- Generator: Adobe Illustrator 18.1.1, SVG Export Plug-In . SVG Version: 6.00 Build 0)  -->
<!DOCTYPE svg PUBLIC "-//W3C//DTD SVG 1.1//EN" "http://www.w3.org/Graphics/SVG/1.1/DTD/svg11.dtd">
<svg version="1.1" id="Layer_1" xmlns="http://www.w3.org/2000/svg" xmlns:xlink="http://www.w3.org/1999/xlink" x="0px" y="0px"
	 width="118.8px" height="128.5px" viewBox="0 0 118.8 128.5" style="enable-background:new 0 0 118.8 128.5;" xml:space="preserve"
	>
<style type="text/css">
	.st0{fill:#E68E24;}
	.st1{fill:none;stroke:#26120B;stroke-width:3;stroke-miterlimit:10;}
	.st2{fill:#26120B;}
</style>
<circle class="st0" cx="62.7" cy="63.7" r="43.2"/>
<circle class="st1" cx="57.7" cy="58.7" r="43.2"/>
<g>
	<path class="st2" d="M49.9,69.8v-3.1c0-2.6,0.6-4.9,1.7-6.9c1.1-2,3.2-4,6.2-6.2c2.9-2.1,4.8-3.7,5.7-5c0.9-1.3,1.4-2.7,1.4-4.3
		c0-1.8-0.7-3.1-2-4.1c-1.3-0.9-3.2-1.4-5.5-1.4c-4.1,0-8.8,1.3-14.1,4l-4.5-9c6.1-3.4,12.6-5.2,19.5-5.2c5.7,0,10.2,1.4,13.5,4.1
		c3.3,2.7,5,6.4,5,10.9c0,3-0.7,5.6-2.1,7.8c-1.4,2.2-4,4.7-7.8,7.4c-2.6,2-4.3,3.4-5,4.5c-0.7,1-1.1,2.4-1.1,4v2.5H49.9z
		 M48.6,83.9c0-2.3,0.6-4.1,1.9-5.2c1.2-1.2,3-1.8,5.4-1.8c2.3,0,4,0.6,5.3,1.8c1.3,1.2,1.9,2.9,1.9,5.2c0,2.2-0.6,3.9-1.9,5.1
		c-1.3,1.3-3,1.9-5.3,1.9c-2.3,0-4.1-0.6-5.4-1.8C49.2,87.8,48.6,86.1,48.6,83.9z"/>
</g>
</svg>
