<?xml version="1.0" encoding="utf-8"?>
<!-- Generator: Adobe Illustrator 18.1.1, SVG Export Plug-In . SVG Version: 6.00 Build 0)  -->
<!DOCTYPE svg PUBLIC "-//W3C//DTD SVG 1.1//EN" "http://www.w3.org/Graphics/SVG/1.1/DTD/svg11.dtd">
<svg version="1.1" id="Layer_1" xmlns="http://www.w3.org/2000/svg" xmlns:xlink="http://www.w3.org/1999/xlink" x="0px" y="0px"
	 width="72px" height="72px" viewBox="0 0 72 72" style="enable-background:new 0 0 72 72;" xml:space="preserve">
<style type="text/css">
	.st0{fill:#26120B;}
	.st1{fill:#FFFFFF;}
</style>
<circle class="st0" cx="36" cy="36" r="33.3"/>
<g>
	<path class="st1" d="M29.9,43.7v-2.3c0-2,0.4-3.8,1.3-5.3c0.9-1.5,2.5-3.1,4.8-4.8c2.2-1.6,3.7-2.9,4.4-3.9s1.1-2.1,1.1-3.3
		c0-1.4-0.5-2.4-1.5-3.1c-1-0.7-2.4-1.1-4.3-1.1c-3.2,0-6.8,1-10.9,3.1l-3.5-7c4.7-2.6,9.7-4,15-4c4.4,0,7.8,1,10.4,3.1
		c2.6,2.1,3.9,4.9,3.9,8.4c0,2.3-0.5,4.3-1.6,6s-3.1,3.6-6,5.7c-2,1.5-3.3,2.6-3.9,3.4c-0.5,0.8-0.8,1.8-0.8,3.1v1.9H29.9z
		 M28.9,54.6c0-1.8,0.5-3.1,1.4-4c1-0.9,2.3-1.4,4.2-1.4c1.8,0,3.1,0.5,4.1,1.4c1,0.9,1.4,2.3,1.4,4c0,1.7-0.5,3-1.5,4
		c-1,1-2.3,1.4-4.1,1.4c-1.8,0-3.2-0.5-4.1-1.4C29.4,57.6,28.9,56.3,28.9,54.6z"/>
</g>
</svg>
