<svg xmlns="http://www.w3.org/2000/svg" width="39.6" height="59.7" viewBox="-375 583.3 39.6 59.7" enable-background="new -375 583.3 39.6 59.7"><style type="text/css">.st0{fill:#26120B;}</style><path class="st0" d="M-345.6 622.1h-7.5c-5.3 0-6.2-2.4-6.2-4.5 0-1 .1-2.7.1-4.8h12.5c1.9 0 5.4-.8 5.4-4.2 0-3.4-1.6-5.7-3.9-5.7h-13.8c0-4.9-.3-9.9-5.2-9.9-2 0-3.6.8-4.3 2.9-.9 2.7-.7 5.8-.6 8.6v1.6c0 1.8 0 3.7.1 5.5v5.9c0 11 10 14.2 12 14.2 1.9 0 9.5.2 10.8.2 1.4 0 5.3-.4 5.3-4.3s-2.8-5.5-4.7-5.5z"/></svg>