<?xml version="1.0" encoding="utf-8"?>
<!-- Generator: Adobe Illustrator 18.1.1, SVG Export Plug-In . SVG Version: 6.00 Build 0)  -->
<!DOCTYPE svg PUBLIC "-//W3C//DTD SVG 1.1//EN" "http://www.w3.org/Graphics/SVG/1.1/DTD/svg11.dtd">
<svg version="1.1" id="Layer_1" xmlns="http://www.w3.org/2000/svg" xmlns:xlink="http://www.w3.org/1999/xlink" x="0px" y="0px"
	 width="53.9px" height="74.2px" viewBox="0 0 53.9 74.2" style="enable-background:new 0 0 53.9 74.2;" xml:space="preserve">
<style type="text/css">
	.st0{fill:#26120B;}
</style>
<path class="st0" d="M38.7,49.2h-9.3c-6.6,0-7.7-2.9-7.7-5.7c0-1.3,0.1-3.4,0.2-6h15.6c2.3,0,6.8-1,6.8-5.2c0-4.3-2.1-7.1-4.8-7.1
	H22c0-6.1-0.4-12.3-6.4-12.3c-2.5,0-4.5,1-5.3,3.6c-1.1,3.3-0.8,7.2-0.8,10.7c0,0.7,0,1.3,0,2c0,2.3,0.1,4.6,0.1,6.8
	c0,2.5,0,4.9,0,7.4C9.6,57.1,22,61,24.4,61c2.4,0,11.8,0.2,13.5,0.2c1.7,0,6.6-0.4,6.6-5.4S41,49.2,38.7,49.2z"/>
</svg>
