<?xml version="1.0" encoding="utf-8"?>
<!-- Generator: Adobe Illustrator 18.1.1, SVG Export Plug-In . SVG Version: 6.00 Build 0)  -->
<!DOCTYPE svg PUBLIC "-//W3C//DTD SVG 1.1//EN" "http://www.w3.org/Graphics/SVG/1.1/DTD/svg11.dtd">
<svg version="1.1" id="Layer_1" xmlns="http://www.w3.org/2000/svg" xmlns:xlink="http://www.w3.org/1999/xlink" x="0px" y="0px"
	 width="85px" height="125px" viewBox="-353 550 85 125" style="enable-background:new -353 550 85 125;" xml:space="preserve">
<style type="text/css">
	.st0{fill:#26120B;}
</style>
<path class="st0" d="M-298.8,624.6h-9.3c-6.6,0-7.7-2.9-7.7-5.7c0-1.3,0.1-3.4,0.2-6h15.6c2.3,0,6.8-1,6.8-5.2
	c0-4.3-2.1-7.1-4.8-7.1h-17.4c0-6.1-0.4-12.3-6.4-12.3c-2.5,0-4.5,1-5.3,3.6c-1.1,3.3-0.8,7.2-0.8,10.7c0,0.7,0,1.3,0,2
	c0,2.3,0.1,4.6,0.1,6.8c0,2.5,0,4.9,0,7.4c0,13.7,12.5,17.6,14.9,17.6c2.4,0,11.8,0.2,13.5,0.2c1.7,0,6.6-0.4,6.6-5.4
	C-293,626.3-296.4,624.6-298.8,624.6z"/>
</svg>
