<?xml version="1.0" encoding="utf-8"?>
<!-- Generator: Adobe Illustrator 18.1.1, SVG Export Plug-In . SVG Version: 6.00 Build 0)  -->
<!DOCTYPE svg PUBLIC "-//W3C//DTD SVG 1.1//EN" "http://www.w3.org/Graphics/SVG/1.1/DTD/svg11.dtd">
<svg version="1.1" id="Layer_1" xmlns="http://www.w3.org/2000/svg" xmlns:xlink="http://www.w3.org/1999/xlink" x="0px" y="0px"
	 width="39.6px" height="59.7px" viewBox="-375 583.3 39.6 59.7" style="enable-background:new -375 583.3 39.6 59.7;"
	 xml:space="preserve">
<style type="text/css">
	.st0{fill:#26120B;}
</style>
<path class="st0" d="M-345.6,622.1h-7.5c-5.3,0-6.2-2.4-6.2-4.5c0-1,0.1-2.7,0.1-4.8h12.5c1.9,0,5.4-0.8,5.4-4.2
	c0-3.4-1.6-5.7-3.9-5.7H-359c0-4.9-0.3-9.9-5.2-9.9c-2,0-3.6,0.8-4.3,2.9c-0.9,2.7-0.7,5.8-0.6,8.6c0,0.5,0,1.1,0,1.6
	c0,1.8,0,3.7,0.1,5.5c0,2,0,3.9,0,5.9c0,11,10,14.2,12,14.2c1.9,0,9.5,0.2,10.8,0.2c1.4,0,5.3-0.4,5.3-4.3S-343.7,622.1-345.6,622.1
	z"/>
</svg>
