<svg xmlns="http://www.w3.org/2000/svg" width="39.6" height="59.7" viewBox="0 0 39.6 59.7"><style type="text/css">.st0{fill:#26120B;}</style><path class="st0" d="M37.9 18.6c-1.3.6-2.8 1-4.3 1.2 1.5-.9 2.7-2.4 3.3-4.1-1.4.8-3 1.5-4.7 1.8-1.4-1.4-3.3-2.3-5.4-2.3-4.1 0-7.4 3.3-7.4 7.4 0 .6.1 1.1.2 1.7-6.2-.3-11.7-3.3-15.4-7.8-.6 1.1-1 2.4-1 3.7 0 2.6 1.3 4.8 3.3 6.2-1.2 0-2.4-.4-3.4-.9v.1c0 3.6 2.6 6.6 5.9 7.3-.6.2-1.3.3-2 .3-.5 0-.9 0-1.4-.1.9 2.9 3.7 5.1 6.9 5.1-2.5 2-5.7 3.2-9.2 3.2-.6 0-1.2 0-1.8-.1 3.3 2.1 7.2 3.3 11.4 3.3 13.6 0 21.1-11.3 21.1-21.1v-1c1.6-1.1 2.9-2.4 3.9-3.9z"/></svg>